<mxfile host="app.diagrams.net" modified="2023-11-13T06:57:25.371Z" agent="Mozilla/5.0 (Windows NT 10.0; Win64; x64; rv:109.0) Gecko/20100101 Firefox/119.0" etag="ISD1BzNUXFi3z7o8UIuJ" version="22.1.0" type="github">
  <diagram name="Page-1" id="2YBvvXClWsGukQMizWep">
    <mxGraphModel dx="978" dy="513" grid="1" gridSize="10" guides="1" tooltips="1" connect="1" arrows="1" fold="1" page="1" pageScale="1" pageWidth="850" pageHeight="1100" math="0" shadow="0">
      <root>
        <mxCell id="0" />
        <mxCell id="1" parent="0" />
        <mxCell id="q_osDT28BEI--2fSxxLf-53" value="" style="endArrow=classic;html=1;rounded=0;entryX=1.5;entryY=0.926;entryDx=0;entryDy=0;entryPerimeter=0;" edge="1" parent="1" source="q_osDT28BEI--2fSxxLf-24" target="q_osDT28BEI--2fSxxLf-27">
          <mxGeometry width="50" height="50" relative="1" as="geometry">
            <mxPoint x="382" y="340" as="sourcePoint" />
            <mxPoint x="500" y="340" as="targetPoint" />
          </mxGeometry>
        </mxCell>
        <mxCell id="q_osDT28BEI--2fSxxLf-54" value="&lt;font style=&quot;font-size: 14px;&quot;&gt;readlist&lt;/font&gt;" style="edgeLabel;html=1;align=center;verticalAlign=middle;resizable=0;points=[];" vertex="1" connectable="0" parent="q_osDT28BEI--2fSxxLf-53">
          <mxGeometry x="-0.7916" y="2" relative="1" as="geometry">
            <mxPoint y="-3" as="offset" />
          </mxGeometry>
        </mxCell>
        <mxCell id="q_osDT28BEI--2fSxxLf-41" value="" style="endArrow=classic;html=1;rounded=0;entryX=1.4;entryY=0.632;entryDx=0;entryDy=0;entryPerimeter=0;" edge="1" parent="1">
          <mxGeometry width="50" height="50" relative="1" as="geometry">
            <mxPoint x="690" y="221" as="sourcePoint" />
            <mxPoint x="94" y="221.08000000000004" as="targetPoint" />
            <Array as="points">
              <mxPoint x="610" y="221" />
            </Array>
          </mxGeometry>
        </mxCell>
        <mxCell id="q_osDT28BEI--2fSxxLf-42" value="&lt;font style=&quot;font-size: 14px;&quot;&gt;readlist&lt;/font&gt;" style="edgeLabel;html=1;align=center;verticalAlign=middle;resizable=0;points=[];" vertex="1" connectable="0" parent="q_osDT28BEI--2fSxxLf-41">
          <mxGeometry x="-0.7759" y="2" relative="1" as="geometry">
            <mxPoint x="-1" y="-4" as="offset" />
          </mxGeometry>
        </mxCell>
        <mxCell id="q_osDT28BEI--2fSxxLf-31" value="" style="endArrow=classic;html=1;rounded=0;entryX=1;entryY=0.25;entryDx=0;entryDy=0;" edge="1" parent="1" source="q_osDT28BEI--2fSxxLf-24" target="q_osDT28BEI--2fSxxLf-27">
          <mxGeometry width="50" height="50" relative="1" as="geometry">
            <mxPoint x="610" y="220" as="sourcePoint" />
            <mxPoint x="700" y="144" as="targetPoint" />
          </mxGeometry>
        </mxCell>
        <mxCell id="q_osDT28BEI--2fSxxLf-32" value="&lt;font style=&quot;font-size: 14px;&quot;&gt;readlist&lt;/font&gt;" style="edgeLabel;html=1;align=center;verticalAlign=middle;resizable=0;points=[];" vertex="1" connectable="0" parent="q_osDT28BEI--2fSxxLf-31">
          <mxGeometry x="0.07" y="-2" relative="1" as="geometry">
            <mxPoint x="251" as="offset" />
          </mxGeometry>
        </mxCell>
        <mxCell id="q_osDT28BEI--2fSxxLf-29" value="" style="html=1;points=[];perimeter=orthogonalPerimeter;outlineConnect=0;targetShapes=umlLifeline;portConstraint=eastwest;newEdgeStyle={&quot;edgeStyle&quot;:&quot;elbowEdgeStyle&quot;,&quot;elbow&quot;:&quot;vertical&quot;,&quot;curved&quot;:0,&quot;rounded&quot;:0};" vertex="1" parent="1">
          <mxGeometry x="500" y="110" width="72" height="190" as="geometry" />
        </mxCell>
        <mxCell id="q_osDT28BEI--2fSxxLf-1" value="" style="endArrow=classic;html=1;rounded=0;exitX=1.1;exitY=0.112;exitDx=0;exitDy=0;exitPerimeter=0;" edge="1" parent="1" source="q_osDT28BEI--2fSxxLf-27" target="q_osDT28BEI--2fSxxLf-29">
          <mxGeometry width="50" height="50" relative="1" as="geometry">
            <mxPoint x="91" y="133.89999999999998" as="sourcePoint" />
            <mxPoint x="530" y="134" as="targetPoint" />
          </mxGeometry>
        </mxCell>
        <mxCell id="q_osDT28BEI--2fSxxLf-2" value="&lt;font style=&quot;font-size: 14px;&quot;&gt;userId&lt;/font&gt;" style="edgeLabel;html=1;align=center;verticalAlign=middle;resizable=0;points=[];" vertex="1" connectable="0" parent="q_osDT28BEI--2fSxxLf-1">
          <mxGeometry x="-0.0011" y="3" relative="1" as="geometry">
            <mxPoint x="241" y="92" as="offset" />
          </mxGeometry>
        </mxCell>
        <mxCell id="q_osDT28BEI--2fSxxLf-3" value="&lt;font style=&quot;font-size: 14px;&quot;&gt;/readlist&lt;/font&gt;" style="edgeLabel;html=1;align=center;verticalAlign=middle;resizable=0;points=[];" vertex="1" connectable="0" parent="q_osDT28BEI--2fSxxLf-1">
          <mxGeometry x="0.7492" y="1" relative="1" as="geometry">
            <mxPoint x="-230" y="-13" as="offset" />
          </mxGeometry>
        </mxCell>
        <mxCell id="q_osDT28BEI--2fSxxLf-4" value="&lt;font style=&quot;font-size: 14px;&quot;&gt;read&lt;/font&gt;" style="edgeLabel;html=1;align=center;verticalAlign=middle;resizable=0;points=[];" vertex="1" connectable="0" parent="q_osDT28BEI--2fSxxLf-1">
          <mxGeometry x="-0.7863" relative="1" as="geometry">
            <mxPoint x="30" y="-14" as="offset" />
          </mxGeometry>
        </mxCell>
        <mxCell id="q_osDT28BEI--2fSxxLf-5" value="&lt;font style=&quot;font-size: 14px;&quot;&gt;GET&lt;/font&gt;" style="edgeLabel;html=1;align=center;verticalAlign=middle;resizable=0;points=[];labelBorderColor=default;" vertex="1" connectable="0" parent="q_osDT28BEI--2fSxxLf-1">
          <mxGeometry x="-0.8386" y="3" relative="1" as="geometry">
            <mxPoint y="-10" as="offset" />
          </mxGeometry>
        </mxCell>
        <mxCell id="q_osDT28BEI--2fSxxLf-19" value="" style="endArrow=classic;html=1;rounded=0;exitX=1.2;exitY=0.682;exitDx=0;exitDy=0;exitPerimeter=0;" edge="1" parent="1">
          <mxGeometry width="50" height="50" relative="1" as="geometry">
            <mxPoint x="92" y="201.94000000000005" as="sourcePoint" />
            <mxPoint x="500" y="201.94000000000005" as="targetPoint" />
          </mxGeometry>
        </mxCell>
        <mxCell id="q_osDT28BEI--2fSxxLf-21" value="&lt;font style=&quot;font-size: 14px;&quot;&gt;/readlist&lt;/font&gt;/&lt;font style=&quot;font-size: 14px;&quot;&gt;update&lt;/font&gt;/" style="edgeLabel;html=1;align=center;verticalAlign=middle;resizable=0;points=[];" vertex="1" connectable="0" parent="q_osDT28BEI--2fSxxLf-19">
          <mxGeometry x="0.7492" y="1" relative="1" as="geometry">
            <mxPoint x="-203" y="-13" as="offset" />
          </mxGeometry>
        </mxCell>
        <mxCell id="q_osDT28BEI--2fSxxLf-22" value="&lt;font style=&quot;font-size: 14px;&quot;&gt;update&lt;/font&gt;" style="edgeLabel;html=1;align=center;verticalAlign=middle;resizable=0;points=[];" vertex="1" connectable="0" parent="q_osDT28BEI--2fSxxLf-19">
          <mxGeometry x="-0.7863" relative="1" as="geometry">
            <mxPoint x="30" y="-14" as="offset" />
          </mxGeometry>
        </mxCell>
        <mxCell id="q_osDT28BEI--2fSxxLf-23" value="&lt;font style=&quot;font-size: 14px;&quot;&gt;PUT&lt;/font&gt;" style="edgeLabel;html=1;align=center;verticalAlign=middle;resizable=0;points=[];labelBorderColor=default;" vertex="1" connectable="0" parent="q_osDT28BEI--2fSxxLf-19">
          <mxGeometry x="-0.8386" y="3" relative="1" as="geometry">
            <mxPoint y="-10" as="offset" />
          </mxGeometry>
        </mxCell>
        <mxCell id="q_osDT28BEI--2fSxxLf-35" value="&lt;font style=&quot;font-size: 14px;&quot;&gt;postId&lt;/font&gt;" style="edgeLabel;html=1;align=center;verticalAlign=middle;resizable=0;points=[];" vertex="1" connectable="0" parent="q_osDT28BEI--2fSxxLf-19">
          <mxGeometry x="-0.0833" relative="1" as="geometry">
            <mxPoint x="54" as="offset" />
          </mxGeometry>
        </mxCell>
        <mxCell id="q_osDT28BEI--2fSxxLf-24" value="" style="html=1;points=[];perimeter=orthogonalPerimeter;outlineConnect=0;targetShapes=umlLifeline;portConstraint=eastwest;newEdgeStyle={&quot;edgeStyle&quot;:&quot;elbowEdgeStyle&quot;,&quot;elbow&quot;:&quot;vertical&quot;,&quot;curved&quot;:0,&quot;rounded&quot;:0};" vertex="1" parent="1">
          <mxGeometry x="690" y="110" width="70" height="190" as="geometry" />
        </mxCell>
        <mxCell id="q_osDT28BEI--2fSxxLf-25" value="" style="endArrow=classic;html=1;rounded=0;" edge="1" parent="1" source="q_osDT28BEI--2fSxxLf-29">
          <mxGeometry width="50" height="50" relative="1" as="geometry">
            <mxPoint x="570" y="134" as="sourcePoint" />
            <mxPoint x="690" y="134" as="targetPoint" />
          </mxGeometry>
        </mxCell>
        <mxCell id="q_osDT28BEI--2fSxxLf-26" value="&lt;font style=&quot;font-size: 17px;&quot;&gt;FrontEnd&lt;/font&gt;" style="rounded=0;whiteSpace=wrap;html=1;" vertex="1" parent="1">
          <mxGeometry x="30" y="50" width="160" height="40" as="geometry" />
        </mxCell>
        <mxCell id="q_osDT28BEI--2fSxxLf-27" value="" style="rounded=0;whiteSpace=wrap;html=1;" vertex="1" parent="1">
          <mxGeometry x="80" y="110" width="10" height="190" as="geometry" />
        </mxCell>
        <mxCell id="q_osDT28BEI--2fSxxLf-28" value="&lt;font style=&quot;font-size: 16px;&quot;&gt;BackEnd&lt;/font&gt;" style="rounded=0;whiteSpace=wrap;html=1;" vertex="1" parent="1">
          <mxGeometry x="470" y="50" width="310" height="40" as="geometry" />
        </mxCell>
        <mxCell id="q_osDT28BEI--2fSxxLf-33" value="&lt;font style=&quot;font-size: 14px;&quot;&gt;userId&lt;/font&gt;" style="edgeLabel;html=1;align=center;verticalAlign=middle;resizable=0;points=[];" vertex="1" connectable="0" parent="1">
          <mxGeometry x="630" y="109.99999999999996" as="geometry">
            <mxPoint x="-8" y="20" as="offset" />
          </mxGeometry>
        </mxCell>
        <mxCell id="q_osDT28BEI--2fSxxLf-38" value="" style="endArrow=classic;html=1;rounded=0;" edge="1" parent="1">
          <mxGeometry width="50" height="50" relative="1" as="geometry">
            <mxPoint x="572" y="202" as="sourcePoint" />
            <mxPoint x="690" y="202" as="targetPoint" />
          </mxGeometry>
        </mxCell>
        <mxCell id="q_osDT28BEI--2fSxxLf-39" value="&lt;font style=&quot;font-size: 14px;&quot;&gt;userId + postId&lt;br&gt;&lt;/font&gt;" style="edgeLabel;html=1;align=center;verticalAlign=middle;resizable=0;points=[];" vertex="1" connectable="0" parent="q_osDT28BEI--2fSxxLf-38">
          <mxGeometry x="-0.1695" relative="1" as="geometry">
            <mxPoint x="5" y="-2" as="offset" />
          </mxGeometry>
        </mxCell>
        <mxCell id="q_osDT28BEI--2fSxxLf-45" value="" style="endArrow=classic;html=1;rounded=0;exitX=1.4;exitY=0.847;exitDx=0;exitDy=0;exitPerimeter=0;" edge="1" parent="1" source="q_osDT28BEI--2fSxxLf-27" target="q_osDT28BEI--2fSxxLf-29">
          <mxGeometry width="50" height="50" relative="1" as="geometry">
            <mxPoint x="632" y="194" as="sourcePoint" />
            <mxPoint x="750" y="194" as="targetPoint" />
          </mxGeometry>
        </mxCell>
        <mxCell id="q_osDT28BEI--2fSxxLf-47" value="&lt;font style=&quot;font-size: 14px;&quot;&gt;DELETE&lt;/font&gt;" style="edgeLabel;html=1;align=center;verticalAlign=middle;resizable=0;points=[];labelBorderColor=default;" vertex="1" connectable="0" parent="q_osDT28BEI--2fSxxLf-45">
          <mxGeometry x="-0.8374" relative="1" as="geometry">
            <mxPoint y="-13" as="offset" />
          </mxGeometry>
        </mxCell>
        <mxCell id="q_osDT28BEI--2fSxxLf-48" value="&lt;font style=&quot;font-size: 14px;&quot;&gt;clear&lt;/font&gt;" style="edgeLabel;html=1;align=center;verticalAlign=middle;resizable=0;points=[];" vertex="1" connectable="0" parent="q_osDT28BEI--2fSxxLf-45">
          <mxGeometry x="-0.6059" y="4" relative="1" as="geometry">
            <mxPoint x="4" y="-9" as="offset" />
          </mxGeometry>
        </mxCell>
        <mxCell id="q_osDT28BEI--2fSxxLf-50" value="&lt;font style=&quot;font-size: 14px;&quot;&gt;/readlist/clear&lt;/font&gt;" style="edgeLabel;html=1;align=center;verticalAlign=middle;resizable=0;points=[];" vertex="1" connectable="0" parent="q_osDT28BEI--2fSxxLf-45">
          <mxGeometry x="-0.3103" relative="1" as="geometry">
            <mxPoint x="10" y="-13" as="offset" />
          </mxGeometry>
        </mxCell>
        <mxCell id="q_osDT28BEI--2fSxxLf-51" value="" style="endArrow=classic;html=1;rounded=0;" edge="1" parent="1">
          <mxGeometry width="50" height="50" relative="1" as="geometry">
            <mxPoint x="572" y="270" as="sourcePoint" />
            <mxPoint x="690" y="270" as="targetPoint" />
          </mxGeometry>
        </mxCell>
        <mxCell id="q_osDT28BEI--2fSxxLf-52" value="&lt;font style=&quot;font-size: 14px;&quot;&gt;userId&lt;/font&gt;" style="edgeLabel;html=1;align=center;verticalAlign=middle;resizable=0;points=[];" vertex="1" connectable="0" parent="q_osDT28BEI--2fSxxLf-51">
          <mxGeometry x="-0.0508" y="1" relative="1" as="geometry">
            <mxPoint y="-2" as="offset" />
          </mxGeometry>
        </mxCell>
        <mxCell id="q_osDT28BEI--2fSxxLf-55" value="&lt;font style=&quot;font-size: 14px;&quot;&gt;Middleware&lt;/font&gt;" style="text;html=1;align=center;verticalAlign=middle;resizable=0;points=[];autosize=1;strokeColor=none;fillColor=none;" vertex="1" parent="1">
          <mxGeometry x="492" y="87" width="90" height="30" as="geometry" />
        </mxCell>
        <mxCell id="q_osDT28BEI--2fSxxLf-57" value="&lt;font style=&quot;font-size: 14px;&quot;&gt;Controller&lt;/font&gt;" style="text;html=1;align=center;verticalAlign=middle;resizable=0;points=[];autosize=1;strokeColor=none;fillColor=none;" vertex="1" parent="1">
          <mxGeometry x="679" y="87" width="90" height="30" as="geometry" />
        </mxCell>
      </root>
    </mxGraphModel>
  </diagram>
</mxfile>
